<svg width="512" height="512" viewBox="0 0 512 512" fill="none" xmlns="http://www.w3.org/2000/svg">
<path d="M412 0H100C44.7715 0 0 44.7715 0 100V412C0 467.228 44.7715 512 100 512H412C467.228 512 512 467.228 512 412V100C512 44.7715 467.228 0 412 0Z" fill="url(#paint0_linear_1_109)"/>
<path d="M234.29 304.571C270.846 304.571 300.48 276.496 300.48 241.865C300.48 207.233 270.846 179.158 234.29 179.158C197.735 179.158 168.1 207.233 168.1 241.865C168.1 276.496 197.735 304.571 234.29 304.571Z" fill="#DFFBFB"/>
<path d="M163.57 399.137C209.532 399.137 246.791 365.69 246.791 324.431C246.791 283.173 209.532 249.726 163.57 249.726C117.608 249.726 80.3484 283.173 80.3484 324.431C80.3484 365.69 117.608 399.137 163.57 399.137Z" fill="#D7FBFB"/>
<path d="M371.319 424.043C417.281 424.043 454.54 390.596 454.54 349.337C454.54 308.079 417.281 274.632 371.319 274.632C325.357 274.632 288.098 308.079 288.098 349.337C288.098 390.596 325.357 424.043 371.319 424.043Z" fill="#DBFBFB"/>
<path d="M318.995 362.208C364.957 362.208 402.216 328.761 402.216 287.502C402.216 246.243 364.957 212.796 318.995 212.796C273.033 212.796 235.773 246.243 235.773 287.502C235.773 328.761 273.033 362.208 318.995 362.208Z" fill="#EBFCFC"/>
<path d="M270.473 428.233C316.434 428.233 353.694 394.786 353.694 353.528C353.694 312.269 316.434 278.822 270.473 278.822C224.511 278.822 187.251 312.269 187.251 353.528C187.251 394.786 224.511 428.233 270.473 428.233Z" fill="#E6FCFC"/>
<path d="M255.942 373.248C330.072 373.248 390.166 332.036 390.166 281.2C390.166 230.364 330.072 189.153 255.942 189.153C181.812 189.153 121.717 230.364 121.717 281.2C121.717 332.036 181.812 373.248 255.942 373.248Z" fill="url(#paint1_linear_1_109)"/>
<path d="M175.775 196.619C158.826 174.921 120.86 186.176 105.296 198.99C74.1826 224.607 115.911 208.391 117.994 229.83C121.216 262.998 138.985 266.071 150.959 266.145C188.725 266.38 198.108 225.211 175.775 196.619Z" fill="url(#paint2_linear_1_109)"/>
<path d="M332.111 193.765C349.06 172.067 387.026 183.322 402.59 196.136C433.703 221.753 391.975 205.537 389.892 226.977C386.669 260.144 368.901 263.217 356.927 263.291C319.16 263.526 309.778 222.357 332.111 193.765Z" fill="url(#paint3_linear_1_109)"/>
<path d="M167.785 167.713C167.785 167.713 176.83 182.731 180.461 206.892C184.239 232.03 160.814 189.183 160.814 189.183" stroke="#8D6E6E" stroke-width="7.30939" stroke-linecap="round"/>
<path d="M332.498 167.359C332.498 167.359 323.453 182.377 319.822 206.538C316.044 231.676 339.469 188.829 339.469 188.829" stroke="#8D6E6E" stroke-width="7.30939" stroke-linecap="round"/>
<path d="M328.204 276.278C328.204 276.278 310.957 273.127 290.436 259.868" stroke="black" stroke-width="7.30939" stroke-linecap="round"/>
<path d="M188.177 274.609C188.177 274.609 205.423 271.458 225.945 258.199" stroke="black" stroke-width="7.30939" stroke-linecap="round"/>
<path d="M257.039 218.71C278.929 218.71 296.674 214.552 296.674 209.424C296.674 204.295 278.929 200.138 257.039 200.138C235.149 200.138 217.404 204.295 217.404 209.424C217.404 214.552 235.149 218.71 257.039 218.71Z" fill="url(#paint4_linear_1_109)"/>
<path d="M257.093 216.52C278.983 216.52 296.729 212.362 296.729 207.234C296.729 202.105 278.983 197.948 257.093 197.948C235.204 197.948 217.458 202.105 217.458 207.234C217.458 212.362 235.204 216.52 257.093 216.52Z" fill="url(#paint5_linear_1_109)"/>
<path d="M257.714 209.835C270.72 209.835 281.264 208.746 281.264 207.402C281.264 206.059 270.72 204.969 257.714 204.969C244.708 204.969 234.165 206.059 234.165 207.402C234.165 208.746 244.708 209.835 257.714 209.835Z" fill="#E3E2DB"/>
<path d="M257.676 209.538C270.682 209.538 281.226 208.556 281.226 207.345C281.226 206.134 270.682 205.152 257.676 205.152C244.67 205.152 234.127 206.134 234.127 207.345C234.127 208.556 244.67 209.538 257.676 209.538Z" fill="url(#paint6_linear_1_109)"/>
<path d="M255.779 324.245C277.92 324.245 295.868 314.198 295.868 301.804C295.868 289.411 277.92 279.364 255.779 279.364C233.638 279.364 215.689 289.411 215.689 301.804C215.689 314.198 233.638 324.245 255.779 324.245Z" fill="url(#paint7_linear_1_109)"/>
<path d="M255.173 318.952C277.617 318.952 295.811 308.157 295.811 294.84C295.811 281.524 277.617 270.728 255.173 270.728C232.728 270.728 214.534 281.524 214.534 294.84C214.534 308.157 232.728 318.952 255.173 318.952Z" fill="url(#paint8_linear_1_109)"/>
<path d="M235.121 307.738C237.757 307.738 239.894 301.964 239.894 294.841C239.894 287.718 237.757 281.943 235.121 281.943C232.485 281.943 230.348 287.718 230.348 294.841C230.348 301.964 232.485 307.738 235.121 307.738Z" fill="#E3E2DB"/>
<path d="M235.113 306.161C237.749 306.161 239.886 300.955 239.886 294.534C239.886 288.114 237.749 282.908 235.113 282.908C232.477 282.908 230.34 288.114 230.34 294.534C230.34 300.955 232.477 306.161 235.113 306.161Z" fill="url(#paint9_linear_1_109)"/>
<path d="M275.232 307.738C277.868 307.738 280.005 301.964 280.005 294.841C280.005 287.718 277.868 281.943 275.232 281.943C272.596 281.943 270.459 287.718 270.459 294.841C270.459 301.964 272.596 307.738 275.232 307.738Z" fill="#E3E2DB"/>
<path d="M275.224 306.161C277.86 306.161 279.997 300.955 279.997 294.534C279.997 288.114 277.86 282.908 275.224 282.908C272.588 282.908 270.451 288.114 270.451 294.534C270.451 300.955 272.588 306.161 275.224 306.161Z" fill="url(#paint10_linear_1_109)"/>
<path d="M182.751 324.037C193.282 324.037 201.82 318.844 201.82 312.439C201.82 306.033 193.282 300.84 182.751 300.84C172.22 300.84 163.683 306.033 163.683 312.439C163.683 318.844 172.22 324.037 182.751 324.037Z" fill="white" fill-opacity="0.163077"/>
<path d="M334.408 325.92C344.94 325.92 353.477 320.727 353.477 314.322C353.477 307.916 344.94 302.723 334.408 302.723C323.877 302.723 315.34 307.916 315.34 314.322C315.34 320.727 323.877 325.92 334.408 325.92Z" fill="white" fill-opacity="0.163077"/>
<path d="M263.071 143.121C273.657 135.877 272.569 116.285 260.641 99.3605C248.713 82.4362 230.461 74.5889 219.875 81.833C209.288 89.0772 210.376 108.67 222.304 125.594C234.232 142.518 252.484 150.365 263.071 143.121Z" fill="#D78611"/>
<path d="M263.219 140.421C272.935 133.772 271.415 115.049 259.823 98.6011C248.23 82.1535 230.956 74.21 221.24 80.8589C211.523 87.5077 213.044 106.231 224.636 122.679C236.228 139.126 253.502 147.07 263.219 140.421Z" fill="#FFDB9F" fill-opacity="0.6"/>
<path d="M221.337 96.0656C222.936 95.5957 224.023 92.9203 223.765 90.0898C223.507 87.2594 222.001 85.3458 220.402 85.8157C218.803 86.2855 217.717 88.961 217.975 91.7914C218.233 94.6218 219.738 96.5355 221.337 96.0656Z" fill="white" fill-opacity="0.590769"/>
<path d="M269.667 176.169C262.06 170.673 264.935 156.168 276.09 143.772C287.244 131.376 302.453 125.782 310.061 131.279C317.668 136.775 314.792 151.28 303.638 163.676C292.484 176.072 277.274 181.666 269.667 176.169Z" fill="#D78611"/>
<path d="M269.828 174.166C262.846 169.121 265.973 155.266 276.814 143.219C287.654 131.172 302.102 125.496 309.084 130.54C316.066 135.585 312.938 149.441 302.098 161.488C291.258 173.535 276.81 179.211 269.828 174.166Z" fill="#FFDB9F" fill-opacity="0.6"/>
<path d="M290.133 140.621C289.411 139.585 290.196 137.656 291.888 136.315C293.579 134.973 295.536 134.726 296.258 135.762C296.981 136.799 296.195 138.727 294.504 140.069C292.812 141.411 290.856 141.658 290.133 140.621Z" fill="white" fill-opacity="0.56"/>
<path d="M93.2413 402.395C117.552 402.395 137.26 383.946 137.26 361.188C137.26 338.43 117.552 319.981 93.2413 319.981C68.9305 319.981 49.2228 338.43 49.2228 361.188C49.2228 383.946 68.9305 402.395 93.2413 402.395Z" fill="#E4FCFE"/>
<path d="M426.659 259.358C436.184 259.358 443.905 251.385 443.905 241.551C443.905 231.717 436.184 223.745 426.659 223.745C417.134 223.745 409.412 231.717 409.412 241.551C409.412 251.385 417.134 259.358 426.659 259.358Z" fill="#CDF6FF"/>
<path d="M170.806 432.844C216.581 436.976 255.448 420.85 257.617 396.826C259.785 372.801 224.435 349.976 178.659 345.844C132.883 341.712 94.0167 357.838 91.848 381.862C89.6793 405.886 125.03 428.711 170.806 432.844Z" fill="#E6FCFC"/>
<path d="M211.546 422.297C165.771 426.429 126.904 410.304 124.735 386.279C122.567 362.255 157.917 339.43 203.693 335.298C249.469 331.165 288.335 347.291 290.504 371.315C292.673 395.34 257.322 418.165 211.546 422.297Z" fill="#F5FEFE"/>
<path d="M83.2639 355.399C111.425 371.605 145.776 365.039 159.988 340.733C174.201 316.426 162.893 283.584 134.731 267.378C106.57 251.172 72.2196 257.738 58.0073 282.044C43.7949 306.351 55.1027 339.193 83.2639 355.399Z" fill="#F3FCFC"/>
<path d="M377.127 403.066C422.374 394.99 454.858 364.94 449.684 335.946C444.509 306.953 403.634 289.996 358.387 298.072C313.14 306.148 280.655 336.198 285.83 365.191C291.005 394.185 331.88 411.142 377.127 403.066Z" fill="#F0FDFD"/>
<path d="M59.2242 321.249C69.4227 321.249 77.6903 312.457 77.6903 301.613C77.6903 290.769 69.4227 281.978 59.2242 281.978C49.0258 281.978 40.7582 290.769 40.7582 301.613C40.7582 312.457 49.0258 321.249 59.2242 321.249Z" fill="#ECFDFE"/>
<path d="M396.479 136.455C404.32 136.455 410.676 129.848 410.676 121.698C410.676 113.547 404.32 106.94 396.479 106.94C388.638 106.94 382.281 113.547 382.281 121.698C382.281 129.848 388.638 136.455 396.479 136.455Z" fill="#CDF6FF"/>
<path d="M443.629 203.836C458.879 203.836 471.242 191.496 471.242 176.274C471.242 161.052 458.879 148.712 443.629 148.712C428.38 148.712 416.017 161.052 416.017 176.274C416.017 191.496 428.38 203.836 443.629 203.836Z" fill="#CDF6FF"/>
<defs>
<linearGradient id="paint0_linear_1_109" x1="256" y1="0" x2="256" y2="512" gradientUnits="userSpaceOnUse">
<stop stop-color="#A3D926"/>
<stop offset="1" stop-color="#185E63"/>
</linearGradient>
<linearGradient id="paint1_linear_1_109" x1="255.942" y1="146.976" x2="255.942" y2="415.425" gradientUnits="userSpaceOnUse">
<stop offset="0.419162" stop-color="#FCB9B9"/>
<stop offset="1" stop-color="#FF9191"/>
</linearGradient>
<linearGradient id="paint2_linear_1_109" x1="140.765" y1="272.22" x2="140.765" y2="178.311" gradientUnits="userSpaceOnUse">
<stop stop-color="#FFAAAA"/>
<stop offset="1" stop-color="#FFCCCC"/>
</linearGradient>
<linearGradient id="paint3_linear_1_109" x1="367.12" y1="269.366" x2="367.12" y2="175.457" gradientUnits="userSpaceOnUse">
<stop stop-color="#FFAAAA"/>
<stop offset="1" stop-color="#FFCCCC"/>
</linearGradient>
<linearGradient id="paint4_linear_1_109" x1="257.039" y1="178.166" x2="257.039" y2="240.682" gradientUnits="userSpaceOnUse">
<stop stop-color="#FBD0D0"/>
<stop offset="1" stop-color="#F9BABA"/>
</linearGradient>
<linearGradient id="paint5_linear_1_109" x1="257.093" y1="175.976" x2="257.093" y2="238.492" gradientUnits="userSpaceOnUse">
<stop offset="0.278443" stop-color="#FBD0D0"/>
<stop offset="1" stop-color="#F98A8A"/>
</linearGradient>
<linearGradient id="paint6_linear_1_109" x1="257.676" y1="188.773" x2="257.676" y2="225.916" gradientUnits="userSpaceOnUse">
<stop offset="0.39521" stop-color="#461B13"/>
<stop offset="0.715569"/>
</linearGradient>
<linearGradient id="paint7_linear_1_109" x1="255.779" y1="226.268" x2="255.779" y2="377.341" gradientUnits="userSpaceOnUse">
<stop stop-color="#FBD0D0"/>
<stop offset="1" stop-color="#F9BABA"/>
</linearGradient>
<linearGradient id="paint8_linear_1_109" x1="255.173" y1="213.679" x2="255.173" y2="376.002" gradientUnits="userSpaceOnUse">
<stop offset="0.278443" stop-color="#FBD0D0"/>
<stop offset="1" stop-color="#F98A8A"/>
</linearGradient>
<linearGradient id="paint9_linear_1_109" x1="235.113" y1="196.076" x2="235.113" y2="392.993" gradientUnits="userSpaceOnUse">
<stop offset="0.39521" stop-color="#461B13"/>
<stop offset="0.715569"/>
</linearGradient>
<linearGradient id="paint10_linear_1_109" x1="270.451" y1="282.909" x2="279.997" y2="282.909" gradientUnits="userSpaceOnUse">
<stop offset="0.39521" stop-color="#461B13"/>
<stop offset="0.715569"/>
</linearGradient>
</defs>
</svg>
