<svg width="512" height="512" viewBox="0 0 512 512" fill="none" xmlns="http://www.w3.org/2000/svg">
<path d="M82.1332 183.893C79.0194 169.867 79.4975 155.282 83.5232 141.49C87.5489 127.698 94.9918 115.145 105.162 104.997C115.332 94.848 127.9 87.4313 141.7 83.4346C155.501 79.4378 170.087 78.9902 184.107 82.1333C191.823 70.0651 202.453 60.1335 215.017 53.2541C227.582 46.3747 241.676 42.7688 256 42.7688C270.324 42.7688 284.418 46.3747 296.982 53.2541C309.546 60.1335 320.177 70.0651 327.893 82.1333C341.934 78.9765 356.545 79.4221 370.368 83.4286C384.19 87.4351 396.775 94.8723 406.951 105.049C417.128 115.225 424.565 127.81 428.571 141.632C432.578 155.455 433.023 170.066 429.867 184.107C441.935 191.823 451.866 202.453 458.746 215.018C465.625 227.582 469.231 241.676 469.231 256C469.231 270.324 465.625 284.418 458.746 296.982C451.866 309.547 441.935 320.177 429.867 327.893C433.01 341.913 432.562 356.499 428.565 370.3C424.569 384.1 417.152 396.668 407.003 406.838C396.854 417.008 384.302 424.451 370.51 428.477C356.718 432.502 342.133 432.98 328.107 429.867C320.4 441.981 309.762 451.955 297.176 458.865C284.59 465.776 270.464 469.398 256.107 469.398C241.749 469.398 227.623 465.776 215.037 458.865C202.452 451.955 191.813 441.981 184.107 429.867C170.087 433.01 155.501 432.562 141.7 428.565C127.9 424.569 115.332 417.152 105.162 407.003C94.9918 396.855 87.5489 384.302 83.5232 370.51C79.4975 356.718 79.0194 342.133 82.1332 328.107C69.9723 320.411 59.9554 309.764 53.0142 297.157C46.0731 284.549 42.4333 270.392 42.4333 256C42.4333 241.608 46.0731 227.451 53.0142 214.843C59.9554 202.236 69.9723 191.589 82.1332 183.893Z" stroke="#0088FF" stroke-width="23.2727" stroke-linecap="round" stroke-linejoin="round"/>
<path d="M186.182 384L186.182 177.455" stroke="#0088FF" stroke-width="11.6364" stroke-linecap="round" stroke-linejoin="round"/>
<path d="M267.636 302.545L267.636 157.091" stroke="#0088FF" stroke-width="11.6364" stroke-linecap="round" stroke-linejoin="round"/>
<path d="M340.364 256L340.364 122.182" stroke="#0088FF" stroke-width="11.6364" stroke-linecap="round" stroke-linejoin="round"/>
<path d="M147.373 332.141V314.912L206.08 241.74V248.121H147.373V228.126H229.904V245.356L170.558 319.166V312.146H232.244V332.141H147.373Z" fill="#0088FF"/>
<path d="M239.594 272.324V258.923L285.256 202.012V206.975H239.594V191.423H303.785V204.824L257.627 262.232V256.773H305.605V272.324H239.594Z" fill="#0088FF"/>
<path d="M319.998 224.324V214.752L352.614 174.101V177.646H319.998V166.538H365.849V176.11L332.879 217.115V213.216H367.149V224.324H319.998Z" fill="#0088FF"/>
</svg>
