<svg width="192" height="192" viewBox="0 0 192 192" fill="none" xmlns="http://www.w3.org/2000/svg">
<path d="M30.8 68.96C29.6323 63.7002 29.8116 58.2307 31.3212 53.0587C32.8308 47.8867 35.6219 43.1796 39.4357 39.3738C43.2495 35.568 47.9624 32.7868 53.1376 31.288C58.3128 29.7892 63.7826 29.6213 69.04 30.8C71.9336 26.2744 75.92 22.5501 80.6316 19.9703C85.3431 17.3905 90.6283 16.0383 96 16.0383C101.372 16.0383 106.657 17.3905 111.368 19.9703C116.08 22.5501 120.066 26.2744 122.96 30.8C128.225 29.6162 133.705 29.7833 138.888 31.2857C144.071 32.7881 148.791 35.5771 152.607 39.3932C156.423 43.2093 159.212 47.9286 160.714 53.112C162.217 58.2954 162.384 63.7747 161.2 69.04C165.726 71.9337 169.45 75.92 172.03 80.6316C174.609 85.3432 175.962 90.6284 175.962 96C175.962 101.372 174.609 106.657 172.03 111.368C169.45 116.08 165.726 120.066 161.2 122.96C162.379 128.217 162.211 133.687 160.712 138.862C159.213 144.038 156.432 148.75 152.626 152.564C148.82 156.378 144.113 159.169 138.941 160.679C133.769 162.188 128.3 162.368 123.04 161.2C120.15 165.743 116.161 169.483 111.441 172.075C106.721 174.666 101.424 176.024 96.04 176.024C90.6557 176.024 85.3586 174.666 80.639 172.075C75.9193 169.483 71.9299 165.743 69.04 161.2C63.7826 162.379 58.3128 162.211 53.1376 160.712C47.9624 159.213 43.2495 156.432 39.4357 152.626C35.6219 148.82 32.8308 144.113 31.3212 138.941C29.8116 133.769 29.6323 128.3 30.8 123.04C26.2396 120.154 22.4833 116.161 19.8803 111.434C17.2774 106.706 15.9125 101.397 15.9125 96C15.9125 90.6031 17.2774 85.294 19.8803 80.5663C22.4833 75.8386 26.2396 71.8461 30.8 68.96Z" stroke="#0088FF" stroke-width="8.72727" stroke-linecap="round" stroke-linejoin="round"/>
<path d="M69.8182 144L69.8182 66.5455" stroke="#0088FF" stroke-width="4.36364" stroke-linecap="round" stroke-linejoin="round"/>
<path d="M100.364 113.455L100.364 58.9091" stroke="#0088FF" stroke-width="4.36364" stroke-linecap="round" stroke-linejoin="round"/>
<path d="M127.636 96L127.636 45.8182" stroke="#0088FF" stroke-width="4.36364" stroke-linecap="round" stroke-linejoin="round"/>
<path d="M55.2647 124.928V118.467L77.2802 91.0274V93.4203H55.2647V85.9223H86.214V92.3834L63.9592 120.062V117.43H87.0914V124.928H55.2647Z" fill="#0088FF"/>
<path d="M89.8477 102.496V97.4712L106.971 76.1294V77.9906H89.8477V72.1588H113.919V77.184L96.6101 98.712V96.6647H114.602V102.496H89.8477Z" fill="#0088FF"/>
<path d="M119.999 84.4965V80.907L132.23 65.6628V66.9923H119.999V62.8267H137.193V66.4162L124.83 81.7933V80.3309H137.681V84.4965H119.999Z" fill="#0088FF"/>
</svg>
