<svg width="192" height="192" viewBox="0 0 192 192" fill="none" xmlns="http://www.w3.org/2000/svg">
<path d="M87.8589 114.214C101.567 114.214 112.68 103.686 112.68 90.6993C112.68 77.7124 101.567 67.1844 87.8589 67.1844C74.1505 67.1844 63.0377 77.7124 63.0377 90.6993C63.0377 103.686 74.1505 114.214 87.8589 114.214Z" fill="#DFFBFB"/>
<path d="M61.3387 149.676C78.5744 149.676 92.5467 137.134 92.5467 121.662C92.5467 106.19 78.5744 93.6472 61.3387 93.6472C44.103 93.6472 30.1307 106.19 30.1307 121.662C30.1307 137.134 44.103 149.676 61.3387 149.676Z" fill="#D7FBFB"/>
<path d="M139.245 159.016C156.48 159.016 170.453 146.474 170.453 131.002C170.453 115.529 156.48 102.987 139.245 102.987C122.009 102.987 108.037 115.529 108.037 131.002C108.037 146.474 122.009 159.016 139.245 159.016Z" fill="#DBFBFB"/>
<path d="M119.623 135.828C136.859 135.828 150.831 123.285 150.831 107.813C150.831 92.3412 136.859 79.7986 119.623 79.7986C102.387 79.7986 88.4151 92.3412 88.4151 107.813C88.4151 123.285 102.387 135.828 119.623 135.828Z" fill="#EBFCFC"/>
<path d="M101.427 160.587C118.663 160.587 132.635 148.045 132.635 132.573C132.635 117.101 118.663 104.558 101.427 104.558C84.1915 104.558 70.2192 117.101 70.2192 132.573C70.2192 148.045 84.1915 160.587 101.427 160.587Z" fill="#E6FCFC"/>
<path d="M95.9781 139.968C123.777 139.968 146.312 124.514 146.312 105.45C146.312 86.3863 123.777 70.9322 95.9781 70.9322C68.1793 70.9322 45.6439 86.3863 45.6439 105.45C45.6439 124.514 68.1793 139.968 95.9781 139.968Z" fill="url(#paint0_linear_1_54)"/>
<path d="M65.9155 73.7322C59.5598 65.5952 45.3225 69.8158 39.4861 74.6212C27.8185 84.2275 43.4665 78.1466 44.2476 86.1864C45.4561 98.6242 52.1192 99.7765 56.6097 99.8044C70.772 99.8925 74.2904 84.4542 65.9155 73.7322Z" fill="url(#paint1_linear_1_54)"/>
<path d="M124.542 72.662C130.897 64.5251 145.135 68.7457 150.971 73.551C162.639 83.1574 146.991 77.0765 146.21 85.1162C145.001 97.554 138.338 98.7063 133.847 98.7342C119.685 98.8223 116.167 83.3841 124.542 72.662Z" fill="url(#paint2_linear_1_54)"/>
<path d="M62.9193 62.8923C62.9193 62.8923 66.3112 68.5243 67.6728 77.5846C69.0895 87.0113 60.3052 70.9437 60.3052 70.9437" stroke="#8D6E6E" stroke-width="2.74102" stroke-linecap="round"/>
<path d="M124.687 62.7595C124.687 62.7595 121.295 68.3915 119.933 77.4518C118.516 86.8785 127.301 70.8109 127.301 70.8109" stroke="#8D6E6E" stroke-width="2.74102" stroke-linecap="round"/>
<path d="M123.076 103.604C123.076 103.604 116.609 102.422 108.913 97.4504" stroke="black" stroke-width="2.74102" stroke-linecap="round"/>
<path d="M70.5662 102.978C70.5662 102.978 77.0336 101.797 84.7292 96.8247" stroke="black" stroke-width="2.74102" stroke-linecap="round"/>
<path d="M96.3895 82.0163C104.598 82.0163 111.253 80.4572 111.253 78.5339C111.253 76.6107 104.598 75.0516 96.3895 75.0516C88.1808 75.0516 81.5263 76.6107 81.5263 78.5339C81.5263 80.4572 88.1808 82.0163 96.3895 82.0163Z" fill="url(#paint3_linear_1_54)"/>
<path d="M96.41 81.195C104.619 81.195 111.273 79.6359 111.273 77.7127C111.273 75.7894 104.619 74.2303 96.41 74.2303C88.2013 74.2303 81.5468 75.7894 81.5468 77.7127C81.5468 79.6359 88.2013 81.195 96.41 81.195Z" fill="url(#paint4_linear_1_54)"/>
<path d="M96.6429 78.6882C101.52 78.6882 105.474 78.2797 105.474 77.7759C105.474 77.272 101.52 76.8635 96.6429 76.8635C91.7656 76.8635 87.8118 77.272 87.8118 77.7759C87.8118 78.2797 91.7656 78.6882 96.6429 78.6882Z" fill="#E3E2DB"/>
<path d="M96.6286 78.5766C101.506 78.5766 105.46 78.2085 105.46 77.7543C105.46 77.3001 101.506 76.9319 96.6286 76.9319C91.7513 76.9319 87.7975 77.3001 87.7975 77.7543C87.7975 78.2085 91.7513 78.5766 96.6286 78.5766Z" fill="url(#paint5_linear_1_54)"/>
<path d="M95.9171 121.592C104.22 121.592 110.951 117.824 110.951 113.177C110.951 108.529 104.22 104.761 95.9171 104.761C87.6143 104.761 80.8835 108.529 80.8835 113.177C80.8835 117.824 87.6143 121.592 95.9171 121.592Z" fill="url(#paint6_linear_1_54)"/>
<path d="M95.6897 119.607C104.106 119.607 110.929 115.559 110.929 110.565C110.929 105.571 104.106 101.523 95.6897 101.523C87.2731 101.523 80.4501 105.571 80.4501 110.565C80.4501 115.559 87.2731 119.607 95.6897 119.607Z" fill="url(#paint7_linear_1_54)"/>
<path d="M88.1703 115.402C89.1588 115.402 89.9602 113.236 89.9602 110.565C89.9602 107.894 89.1588 105.729 88.1703 105.729C87.1818 105.729 86.3804 107.894 86.3804 110.565C86.3804 113.236 87.1818 115.402 88.1703 115.402Z" fill="#E3E2DB"/>
<path d="M88.1674 114.81C89.1559 114.81 89.9573 112.858 89.9573 110.45C89.9573 108.043 89.1559 106.091 88.1674 106.091C87.1789 106.091 86.3776 108.043 86.3776 110.45C86.3776 112.858 87.1789 114.81 88.1674 114.81Z" fill="url(#paint8_linear_1_54)"/>
<path d="M103.212 115.402C104.201 115.402 105.002 113.236 105.002 110.565C105.002 107.894 104.201 105.729 103.212 105.729C102.224 105.729 101.422 107.894 101.422 110.565C101.422 113.236 102.224 115.402 103.212 115.402Z" fill="#E3E2DB"/>
<path d="M103.209 114.81C104.197 114.81 104.999 112.858 104.999 110.45C104.999 108.043 104.197 106.091 103.209 106.091C102.22 106.091 101.419 108.043 101.419 110.45C101.419 112.858 102.22 114.81 103.209 114.81Z" fill="url(#paint9_linear_1_54)"/>
<path d="M68.5316 121.514C72.4809 121.514 75.6823 119.567 75.6823 117.165C75.6823 114.762 72.4809 112.815 68.5316 112.815C64.5824 112.815 61.3809 114.762 61.3809 117.165C61.3809 119.567 64.5824 121.514 68.5316 121.514Z" fill="white" fill-opacity="0.163077"/>
<path d="M125.403 122.22C129.352 122.22 132.554 120.273 132.554 117.871C132.554 115.468 129.352 113.521 125.403 113.521C121.454 113.521 118.252 115.468 118.252 117.871C118.252 120.273 121.454 122.22 125.403 122.22Z" fill="white" fill-opacity="0.163077"/>
<path d="M98.6515 53.6705C102.621 50.9539 102.213 43.6068 97.7404 37.2602C93.2673 30.9136 86.4229 27.9708 82.4529 30.6874C78.483 33.404 78.8909 40.7511 83.364 47.0977C87.8371 53.4443 94.6815 56.3871 98.6515 53.6705Z" fill="#D78611"/>
<path d="M98.7071 52.6578C102.351 50.1645 101.781 43.1433 97.4335 36.9754C93.0864 30.8076 86.6086 27.8288 82.9649 30.3221C79.3212 32.8154 79.8915 39.8367 84.2386 46.0045C88.5857 52.1723 95.0634 55.1511 98.7071 52.6578Z" fill="#FFDB9F" fill-opacity="0.6"/>
<path d="M83.0015 36.0246C83.6011 35.8484 84.0087 34.8451 83.9119 33.7837C83.8151 32.7223 83.2505 32.0047 82.6509 32.1809C82.0513 32.3571 81.6437 33.3604 81.7405 34.4218C81.8373 35.4832 82.4019 36.2008 83.0015 36.0246Z" fill="white" fill-opacity="0.590769"/>
<path d="M101.125 66.0634C98.2724 64.0023 99.3508 58.563 103.534 53.9144C107.717 49.2659 113.42 47.1684 116.273 49.2296C119.125 51.2908 118.047 56.7301 113.864 61.3786C109.681 66.0271 103.978 68.1246 101.125 66.0634Z" fill="#D78611"/>
<path d="M101.185 65.3123C98.5671 63.4205 99.74 58.2247 103.805 53.7071C107.87 49.1895 113.288 47.0609 115.906 48.9527C118.525 50.8445 117.352 56.0403 113.287 60.5579C109.222 65.0755 103.804 67.2041 101.185 65.3123Z" fill="#FFDB9F" fill-opacity="0.6"/>
<path d="M108.8 52.733C108.529 52.3443 108.824 51.6212 109.458 51.118C110.092 50.6149 110.826 50.5221 111.097 50.9109C111.368 51.2996 111.073 52.0227 110.439 52.5258C109.805 53.029 109.071 53.1217 108.8 52.733Z" fill="white" fill-opacity="0.56"/>
<path d="M34.9655 150.898C44.082 150.898 51.4724 143.98 51.4724 135.445C51.4724 126.911 44.082 119.993 34.9655 119.993C25.849 119.993 18.4586 126.911 18.4586 135.445C18.4586 143.98 25.849 150.898 34.9655 150.898Z" fill="#E4FCFE"/>
<path d="M159.997 97.2591C163.569 97.2591 166.464 94.2695 166.464 90.5818C166.464 86.894 163.569 83.9045 159.997 83.9045C156.425 83.9045 153.53 86.894 153.53 90.5818C153.53 94.2695 156.425 97.2591 159.997 97.2591Z" fill="#CDF6FF"/>
<path d="M64.0521 162.316C81.218 163.866 95.793 157.819 96.6063 148.81C97.4195 139.801 84.163 131.241 66.9971 129.692C49.8313 128.142 35.2563 134.189 34.443 143.198C33.6298 152.207 46.8862 160.767 64.0521 162.316Z" fill="#E6FCFC"/>
<path d="M79.3299 158.361C62.164 159.911 47.589 153.864 46.7757 144.855C45.9625 135.846 59.2189 127.286 76.3848 125.737C93.5507 124.187 108.126 130.234 108.939 139.243C109.752 148.252 96.4958 156.812 79.3299 158.361Z" fill="#F5FEFE"/>
<path d="M31.224 133.275C41.7844 139.352 54.666 136.89 59.9956 127.775C65.3252 118.66 61.0848 106.344 50.5243 100.267C39.9638 94.1893 27.0824 96.6517 21.7527 105.767C16.4231 114.881 20.6635 127.197 31.224 133.275Z" fill="#F3FCFC"/>
<path d="M141.423 151.15C158.39 148.121 170.572 136.852 168.631 125.98C166.691 115.107 151.363 108.749 134.395 111.777C117.428 114.805 105.246 126.074 107.186 136.947C109.127 147.819 124.455 154.178 141.423 151.15Z" fill="#F0FDFD"/>
<path d="M22.2091 120.468C26.0335 120.468 29.1339 117.172 29.1339 113.105C29.1339 109.038 26.0335 105.742 22.2091 105.742C18.3847 105.742 15.2843 109.038 15.2843 113.105C15.2843 117.172 18.3847 120.468 22.2091 120.468Z" fill="#ECFDFE"/>
<path d="M148.68 51.1707C151.62 51.1707 154.004 48.693 154.004 45.6367C154.004 42.5803 151.62 40.1026 148.68 40.1026C145.739 40.1026 143.355 42.5803 143.355 45.6367C143.355 48.693 145.739 51.1707 148.68 51.1707Z" fill="#CDF6FF"/>
<path d="M166.361 76.4387C172.08 76.4387 176.716 71.8111 176.716 66.1028C176.716 60.3945 172.08 55.7669 166.361 55.7669C160.642 55.7669 156.006 60.3945 156.006 66.1028C156.006 71.8111 160.642 76.4387 166.361 76.4387Z" fill="#CDF6FF"/>
<defs>
<linearGradient id="paint0_linear_1_54" x1="95.9781" y1="55.1159" x2="95.9781" y2="155.784" gradientUnits="userSpaceOnUse">
<stop offset="0.419162" stop-color="#FCB9B9"/>
<stop offset="1" stop-color="#FF9191"/>
</linearGradient>
<linearGradient id="paint1_linear_1_54" x1="52.7869" y1="102.082" x2="52.7869" y2="66.8665" gradientUnits="userSpaceOnUse">
<stop stop-color="#FFAAAA"/>
<stop offset="1" stop-color="#FFCCCC"/>
</linearGradient>
<linearGradient id="paint2_linear_1_54" x1="137.67" y1="101.012" x2="137.67" y2="65.7964" gradientUnits="userSpaceOnUse">
<stop stop-color="#FFAAAA"/>
<stop offset="1" stop-color="#FFCCCC"/>
</linearGradient>
<linearGradient id="paint3_linear_1_54" x1="96.3895" y1="66.8123" x2="96.3895" y2="90.2557" gradientUnits="userSpaceOnUse">
<stop stop-color="#FBD0D0"/>
<stop offset="1" stop-color="#F9BABA"/>
</linearGradient>
<linearGradient id="paint4_linear_1_54" x1="96.41" y1="65.991" x2="96.41" y2="89.4344" gradientUnits="userSpaceOnUse">
<stop offset="0.278443" stop-color="#FBD0D0"/>
<stop offset="1" stop-color="#F98A8A"/>
</linearGradient>
<linearGradient id="paint5_linear_1_54" x1="96.6286" y1="70.7899" x2="96.6286" y2="84.7186" gradientUnits="userSpaceOnUse">
<stop offset="0.39521" stop-color="#461B13"/>
<stop offset="0.715569"/>
</linearGradient>
<linearGradient id="paint6_linear_1_54" x1="95.917" y1="84.8504" x2="95.917" y2="141.503" gradientUnits="userSpaceOnUse">
<stop stop-color="#FBD0D0"/>
<stop offset="1" stop-color="#F9BABA"/>
</linearGradient>
<linearGradient id="paint7_linear_1_54" x1="95.6897" y1="80.1297" x2="95.6897" y2="141.001" gradientUnits="userSpaceOnUse">
<stop offset="0.278443" stop-color="#FBD0D0"/>
<stop offset="1" stop-color="#F98A8A"/>
</linearGradient>
<linearGradient id="paint8_linear_1_54" x1="88.1675" y1="73.5286" x2="88.1675" y2="147.372" gradientUnits="userSpaceOnUse">
<stop offset="0.39521" stop-color="#461B13"/>
<stop offset="0.715569"/>
</linearGradient>
<linearGradient id="paint9_linear_1_54" x1="101.419" y1="106.091" x2="104.999" y2="106.091" gradientUnits="userSpaceOnUse">
<stop offset="0.39521" stop-color="#461B13"/>
<stop offset="0.715569"/>
</linearGradient>
</defs>
</svg>
